<svg width="30" height="30" viewBox="0 0 30 30" fill="none" xmlns="http://www.w3.org/2000/svg">
<path d="M22.9763 12.7571C23.0681 12.7541 23.1596 12.7689 23.2453 12.8008C23.331 12.8328 23.4092 12.8811 23.4752 12.9429C23.5413 13.0047 23.5938 13.0788 23.6297 13.1607C23.6655 13.2427 23.684 13.3308 23.684 13.4197C23.684 13.5087 23.6655 13.5968 23.6297 13.6787C23.5938 13.7607 23.5413 13.8347 23.4752 13.8966C23.4092 13.9584 23.331 14.0067 23.2453 14.0386C23.1596 14.0706 23.0681 14.0854 22.9763 14.0824H21.0759V15.2635H22.9763C23.0686 15.2592 23.1609 15.273 23.2475 15.3042C23.3342 15.3355 23.4134 15.3834 23.4803 15.4452C23.5472 15.507 23.6005 15.5813 23.6369 15.6636C23.6733 15.746 23.6921 15.8346 23.6921 15.9242C23.6921 16.0138 23.6733 16.1024 23.6369 16.1847C23.6005 16.2671 23.5472 16.3414 23.4803 16.4032C23.4134 16.4649 23.3342 16.5129 23.2475 16.5441C23.1609 16.5754 23.0686 16.5892 22.9763 16.5848H20.395C20.2146 16.5842 20.0417 16.5144 19.9143 16.3906C19.7868 16.2667 19.7152 16.0991 19.7149 15.9242V10.9161C19.7149 10.5515 20.0196 10.2523 20.395 10.2523H22.9812C23.1566 10.2611 23.3219 10.3349 23.4427 10.4586C23.5634 10.5822 23.6305 10.7461 23.63 10.9164C23.6295 11.0867 23.5614 11.2502 23.4399 11.3731C23.3183 11.4961 23.1526 11.569 22.9771 11.5768H21.0767V12.7579L22.9763 12.7571ZM18.8049 15.9234C18.8034 16.0988 18.7306 16.2665 18.6021 16.3901C18.4737 16.5136 18.3002 16.5831 18.1192 16.5833C18.012 16.5843 17.9061 16.5611 17.8098 16.5156C17.7135 16.4701 17.6294 16.4035 17.5642 16.3211L14.9196 12.8351V15.9226C14.9196 16.0978 14.8477 16.2659 14.7199 16.3898C14.5921 16.5137 14.4187 16.5833 14.2379 16.5833C14.0571 16.5833 13.8837 16.5137 13.7558 16.3898C13.628 16.2659 13.5562 16.0978 13.5562 15.9226V10.9145C13.5562 10.6318 13.7471 10.3783 14.0217 10.2877C14.0896 10.2645 14.1611 10.253 14.233 10.2539C14.4442 10.2539 14.6393 10.3649 14.7701 10.5208L17.4359 14.0147V10.9145C17.4359 10.5499 17.7406 10.2507 18.1176 10.2507C18.4946 10.2507 18.8033 10.5499 18.8033 10.9145L18.8049 15.9234ZM12.5844 15.9234C12.5836 16.099 12.5109 16.2672 12.3824 16.391C12.2539 16.5149 12.0799 16.5843 11.8987 16.5841C11.7188 16.5826 11.5468 16.5124 11.42 16.3887C11.2933 16.2649 11.2221 16.0977 11.2219 15.9234V10.9153C11.2219 10.5507 11.5266 10.2515 11.9036 10.2515C12.2798 10.2515 12.5852 10.5507 12.5852 10.9153L12.5844 15.9234ZM9.91375 16.5841H7.32756C7.14652 16.5836 6.97296 16.514 6.84456 16.3903C6.71617 16.2666 6.64331 16.0988 6.64181 15.9234V10.9153C6.64181 10.5507 6.95056 10.2515 7.32756 10.2515C7.70456 10.2515 8.00925 10.5507 8.00925 10.9153V15.2627H9.91375C10.0945 15.2627 10.2679 15.3323 10.3958 15.4562C10.5236 15.5801 10.5954 15.7482 10.5954 15.9234C10.5954 16.0986 10.5236 16.2667 10.3958 16.3906C10.2679 16.5144 10.0945 16.5841 9.91375 16.5841V16.5841ZM28 13.228C28 7.58918 22.1638 3 15 3C7.83619 3 2 7.58918 2 13.228C2 18.281 6.62556 22.5134 12.8712 23.3174C13.2946 23.4032 13.8698 23.5883 14.0185 23.9371C14.1493 24.2521 14.103 24.7403 14.0608 25.0734L13.8828 26.1435C13.8316 26.4593 13.6204 27.3869 15.0171 26.8207C16.4178 26.2546 22.5116 22.5394 25.2408 19.4952C27.1071 17.5148 28 15.4801 28 13.228Z" fill="white"/>
</svg>
