<svg width="30" height="30" viewBox="0 0 30 30" fill="none" xmlns="http://www.w3.org/2000/svg">
<path d="M23 3H7C4.73333 3 3 4.73333 3 7V23C3 25.2667 4.73333 27 7 27H23C25.2667 27 27 25.2667 27 23V7C27 4.73333 25.2667 3 23 3ZM15 11C17.2667 11 19 12.7333 19 15C19 17.2667 17.2667 19 15 19C12.7333 19 11 17.2667 11 15C11 12.7333 12.7333 11 15 11ZM20.0667 8.33333C20.0667 7.4 20.8667 6.73333 21.6667 6.73333C22.4667 6.73333 23.2667 7.53333 23.2667 8.33333C23.2667 9.13333 22.6 9.93333 21.6667 9.93333C20.7333 9.93333 20.0667 9.26667 20.0667 8.33333V8.33333ZM23 24.3333H7C6.2 24.3333 5.66667 23.8 5.66667 23V15H8.33333C8.33333 18.7333 11.2667 21.6667 15 21.6667C18.7333 21.6667 21.6667 18.7333 21.6667 15H24.3333V23C24.3333 23.8 23.8 24.3333 23 24.3333Z" fill="white"/>
</svg>
