<svg width="30" height="30" viewBox="0 0 30 30" fill="none" xmlns="http://www.w3.org/2000/svg">
<path d="M26.55 7.95025C26.25 6.90025 25.5 6.15025 24.45 5.85025C21.3 5.55025 18.15 5.25025 15 5.40025C11.85 5.40025 8.7 5.55025 5.55 5.85025C4.65 6.15025 3.75 7.05025 3.45 7.95025C2.85185 12.6312 2.85185 17.3693 3.45 22.0502C3.75 23.1002 4.5 23.8502 5.55 24.1502C8.7 24.4502 11.85 24.7502 15 24.6002C18.15 24.6002 21.3 24.4502 24.45 24.1502C25.5 23.8502 26.25 23.1002 26.55 22.0502C27.1482 17.3693 27.1482 12.6312 26.55 7.95025V7.95025ZM12 19.5002V10.5002L19.8 15.0002L12 19.5002Z" fill="#F8F8F8"/>
</svg>
