<svg width="76" height="76" viewBox="0 0 76 76" fill="none" xmlns="http://www.w3.org/2000/svg">
<path fill-rule="evenodd" clip-rule="evenodd" d="M37.999 74.7558C60.499 74.7558 74.7558 55.9995 74.7558 37.999C74.7558 19.9985 59.999 1.24228 37.999 1.24228C15.999 1.24228 1.24228 19.4384 1.24228 37.999C1.24228 56.5596 15.499 74.7558 37.999 74.7558ZM37.999 75.998C59.499 75.998 75.9981 59.1903 75.9981 37.999C75.9981 16.8077 58.999 0 37.999 0C16.999 0 -4.29754e-05 17.4995 0 37.999C4.29754e-05 58.4985 16.499 75.998 37.999 75.998Z" fill="#FAFBFD"/>
<path d="M22.4286 36.0476H48.0695L41.5914 29.5514L44.1429 27L55 37.8571L44.1429 48.7143L41.5914 46.1629L48.0695 39.6667H22.4286V36.0476Z" fill="#FAFBFD"/>
</svg>
